Format                           : MPEG-TS
File size                        : 552 MiB
Duration                         : 9mn 25s
Overall bit rate                 : 8 195 Kbps

Video
ID                               : 5500 (0x157C)
Menu ID                          : 6940 (0x1B1C)
Format                           : AVC
Format/Info                      : Advanced Video Codec
Format profile                   : High@L4.0
Format settings, CABAC           : Yes
Format settings, ReFrames        : 4 frames
Format settings, GOP             : M=8, N=24
Codec ID                         : 27
Duration                         : 9mn 24s
Bit rate                         : 7 337 Kbps
Width                            : 1 920 pixels
Height                           : 1 080 pixels
Display aspect ratio             : 16:9
Frame rate                       : 25.000 fps
Color space                      : YUV
Chroma subsampling               : 4:2:0
Bit depth                        : 8 bits
Scan type                        : MBAFF
Bits/(Pixel*Frame)               : 0.142
Stream size                      : 494 MiB (89%)
Color primaries                  : BT.709-5, BT.1361, IEC 61966-2-4, SMPTE RP177
Transfer characteristics         : BT.709-5, BT.1361
Matrix coefficients              : BT.709-5, BT.1361, IEC 61966-2-4 709, SMPTE RP177

Audio #1
ID                               : 5501 (0x157D)
Menu ID                          : 6940 (0x1B1C)
Format                           : AC-3
Format/Info                      : Audio Coding 3
Mode extension                   : CM (complete main)
Codec ID                         : 6
Duration                         : 9mn 24s
Bit rate mode                    : Constant
Bit rate                         : 192 Kbps
Channel(s)                       : 2 channels
Channel positions                : Front: L R
Sampling rate                    : 48.0 KHz
Bit depth                        : 16 bits
Compression mode                 : Lossy
Delay relative to video          : 27ms
Stream size                      : 12.9 MiB (2%)
Language                         : English

Audio #2
ID                               : 5502 (0x157E)
Menu ID                          : 6940 (0x1B1C)
Format                           : MPEG Audio
Format version                   : Version 1
Format profile                   : Layer 2
Codec ID                         : 3
Duration                         : 9mn 24s
Bit rate mode                    : Constant
Bit rate                         : 256 Kbps
Channel(s)                       : 2 channels
Sampling rate                    : 48.0 KHz
Compression mode                 : Lossy
Delay relative to video          : 40ms
Stream size                      : 17.2 MiB (3%)
Language                         : nar

Text #1
ID                               : 5503 (0x157F)-888
Menu ID                          : 6940 (0x1B1C)
Format                           : Teletext Subtitle
Language                         : English

Text #2
ID                               : 5504 (0x1580)
Menu ID                          : 6940 (0x1B1C)
Format                           : DVB Subtitle
Codec ID                         : 6
Duration                         : 9mn 22s
Delay relative to video          : 564ms
Language                         : English
